ISO-10303-21;
HEADER;
/* Generated by software containing ST-Developer
 * from STEP Tools, Inc. (www.steptools.com) 
 */
/* OPTION: using custom renumber hook */

FILE_DESCRIPTION(
/* description */ ('STEP AP242',
'CAx-IF Rec.Pracs.---Representation and Presentation of Product Manufa
cturing Information (PMI)---4.0---2014-10-13',
'CAx-IF Rec.Pracs.---3D Tessellated Geometry---0.4---2014-09-14','2;1'),

/* implementation_level */ '2;1');

FILE_NAME(
/* name */ '67a2e37436955747aaf3f8f1',
/* time_stamp */ '2025-02-05T04:05:09Z',
/* author */ (''),
/* organization */ (''),
/* preprocessor_version */ 'ST-DEVELOPER v20',
/* originating_system */ 'ONSHAPE BY PTC INC, 1.193',
/* authorisation */ '  ');

FILE_SCHEMA (('AP242_MANAGED_MODEL_BASED_3D_ENGINEERING_MIM_LF { 1 0 10303 442 1 1 4 }'));
ENDSEC;

DATA;
#10=SHAPE_REPRESENTATION_RELATIONSHIP('','',#246,#11);
#11=ADVANCED_BREP_SHAPE_REPRESENTATION('',(#244),#436);
#12=DEGENERATE_TOROIDAL_SURFACE('',#259,0.00015,0.0005,.T.);
#13=DEGENERATE_TOROIDAL_SURFACE('',#264,0.00015,0.0005,.T.);
#14=DEGENERATE_TOROIDAL_SURFACE('',#273,0.00015,0.0005,.T.);
#15=DEGENERATE_TOROIDAL_SURFACE('',#278,0.00015,0.0005,.T.);
#16=CYLINDRICAL_SURFACE('',#252,0.0004);
#17=CYLINDRICAL_SURFACE('',#256,0.00065);
#18=CYLINDRICAL_SURFACE('',#262,0.00065);
#19=CYLINDRICAL_SURFACE('',#266,0.0004);
#20=CYLINDRICAL_SURFACE('',#270,0.00065);
#21=CYLINDRICAL_SURFACE('',#276,0.00065);
#22=OVER_RIDING_STYLED_ITEM('',(#213),#195,#211);
#23=OVER_RIDING_STYLED_ITEM('',(#214),#196,#211);
#24=OVER_RIDING_STYLED_ITEM('',(#215),#203,#211);
#25=OVER_RIDING_STYLED_ITEM('',(#216),#204,#211);
#26=TOROIDAL_SURFACE('',#250,0.00475,0.001);
#27=TOROIDAL_SURFACE('',#260,0.00065,0.00065);
#28=TOROIDAL_SURFACE('',#274,0.00065,0.00065);
#29=B_SPLINE_CURVE_WITH_KNOTS('',3,(#354,#355,#356,#357,#358,#359,#360),
 .UNSPECIFIED.,.F.,.F.,(4,1,1,1,4),(-0.000864397402565475,-0.000432345052879949,
-2.92703194423687E-7,0.000431759646491102,0.000863811996176628),
 .UNSPECIFIED.);
#30=B_SPLINE_CURVE_WITH_KNOTS('',3,(#364,#365,#366,#367,#368,#369,#370,
#371,#372,#373,#374),.UNSPECIFIED.,.F.,.F.,(4,1,1,1,1,1,1,1,4),(0.00441646952662344,
0.00487774364876016,0.00533901777089687,0.00580029189303358,0.00626156601517029,
0.006722840137307,0.00718411425944372,0.00764538838158043,0.00810666250371714),
 .UNSPECIFIED.);
#31=B_SPLINE_CURVE_WITH_KNOTS('',3,(#378,#379,#380,#381,#382,#383,#384,
#385,#386,#387,#388),.UNSPECIFIED.,.F.,.F.,(4,1,1,1,1,1,1,1,4),(0.00441646952662344,
0.00487774364876015,0.00533901777089687,0.00580029189303358,0.00626156601517029,
0.006722840137307,0.00718411425944371,0.00764538838158043,0.00810666250371714),
 .UNSPECIFIED.);
#32=B_SPLINE_CURVE_WITH_KNOTS('',3,(#409,#410,#411,#412,#413,#414,#415),
 .UNSPECIFIED.,.F.,.F.,(4,1,1,1,4),(-0.000864397402565475,-0.000432345052879949,
-2.92703194423687E-7,0.000431759646491102,0.000863811996176628),
 .UNSPECIFIED.);
#33=LINE('',#352,#37);
#34=LINE('',#362,#38);
#35=LINE('',#407,#39);
#36=LINE('',#417,#40);
#37=VECTOR('',#285,1.);
#38=VECTOR('',#286,1.);
#39=VECTOR('',#319,1.);
#40=VECTOR('',#320,1.);
#41=ORIENTED_EDGE('',*,*,#85,.T.);
#42=ORIENTED_EDGE('',*,*,#86,.T.);
#43=ORIENTED_EDGE('',*,*,#87,.T.);
#44=ORIENTED_EDGE('',*,*,#88,.T.);
#45=ORIENTED_EDGE('',*,*,#85,.F.);
#46=ORIENTED_EDGE('',*,*,#89,.T.);
#47=ORIENTED_EDGE('',*,*,#90,.F.);
#48=ORIENTED_EDGE('',*,*,#91,.T.);
#49=ORIENTED_EDGE('',*,*,#92,.T.);
#50=ORIENTED_EDGE('',*,*,#93,.T.);
#51=ORIENTED_EDGE('',*,*,#93,.F.);
#52=ORIENTED_EDGE('',*,*,#94,.T.);
#53=ORIENTED_EDGE('',*,*,#95,.F.);
#54=ORIENTED_EDGE('',*,*,#92,.F.);
#55=ORIENTED_EDGE('',*,*,#94,.F.);
#56=ORIENTED_EDGE('',*,*,#96,.F.);
#57=ORIENTED_EDGE('',*,*,#95,.T.);
#58=ORIENTED_EDGE('',*,*,#88,.F.);
#59=ORIENTED_EDGE('',*,*,#97,.T.);
#60=ORIENTED_EDGE('',*,*,#86,.F.);
#61=ORIENTED_EDGE('',*,*,#89,.F.);
#62=ORIENTED_EDGE('',*,*,#96,.T.);
#63=ORIENTED_EDGE('',*,*,#87,.F.);
#64=ORIENTED_EDGE('',*,*,#97,.F.);
#65=ORIENTED_EDGE('',*,*,#90,.T.);
#66=ORIENTED_EDGE('',*,*,#98,.T.);
#67=ORIENTED_EDGE('',*,*,#99,.T.);
#68=ORIENTED_EDGE('',*,*,#100,.T.);
#69=ORIENTED_EDGE('',*,*,#101,.T.);
#70=ORIENTED_EDGE('',*,*,#102,.T.);
#71=ORIENTED_EDGE('',*,*,#102,.F.);
#72=ORIENTED_EDGE('',*,*,#103,.T.);
#73=ORIENTED_EDGE('',*,*,#104,.F.);
#74=ORIENTED_EDGE('',*,*,#101,.F.);
#75=ORIENTED_EDGE('',*,*,#103,.F.);
#76=ORIENTED_EDGE('',*,*,#105,.F.);
#77=ORIENTED_EDGE('',*,*,#104,.T.);
#78=ORIENTED_EDGE('',*,*,#100,.F.);
#79=ORIENTED_EDGE('',*,*,#106,.T.);
#80=ORIENTED_EDGE('',*,*,#98,.F.);
#81=ORIENTED_EDGE('',*,*,#91,.F.);
#82=ORIENTED_EDGE('',*,*,#105,.T.);
#83=ORIENTED_EDGE('',*,*,#99,.F.);
#84=ORIENTED_EDGE('',*,*,#106,.F.);
#85=EDGE_CURVE('',#107,#108,#123,.T.);
#86=EDGE_CURVE('',#108,#109,#33,.F.);
#87=EDGE_CURVE('',#109,#110,#29,.T.);
#88=EDGE_CURVE('',#110,#107,#34,.T.);
#89=EDGE_CURVE('',#107,#108,#30,.T.);
#90=EDGE_CURVE('',#111,#112,#124,.T.);
#91=EDGE_CURVE('',#111,#112,#31,.T.);
#92=EDGE_CURVE('',#113,#113,#125,.F.);
#93=EDGE_CURVE('',#114,#114,#126,.T.);
#94=EDGE_CURVE('',#115,#115,#127,.T.);
#95=EDGE_CURVE('',#116,#116,#128,.T.);
#96=EDGE_CURVE('',#116,#116,#129,.T.);
#97=EDGE_CURVE('',#110,#109,#130,.F.);
#98=EDGE_CURVE('',#112,#117,#35,.F.);
#99=EDGE_CURVE('',#117,#118,#32,.T.);
#100=EDGE_CURVE('',#118,#111,#36,.T.);
#101=EDGE_CURVE('',#119,#119,#131,.F.);
#102=EDGE_CURVE('',#120,#120,#132,.T.);
#103=EDGE_CURVE('',#121,#121,#133,.T.);
#104=EDGE_CURVE('',#122,#122,#134,.T.);
#105=EDGE_CURVE('',#122,#122,#135,.T.);
#106=EDGE_CURVE('',#118,#117,#136,.F.);
#107=VERTEX_POINT('',#350);
#108=VERTEX_POINT('',#351);
#109=VERTEX_POINT('',#353);
#110=VERTEX_POINT('',#361);
#111=VERTEX_POINT('',#376);
#112=VERTEX_POINT('',#377);
#113=VERTEX_POINT('',#391);
#114=VERTEX_POINT('',#393);
#115=VERTEX_POINT('',#397);
#116=VERTEX_POINT('',#399);
#117=VERTEX_POINT('',#408);
#118=VERTEX_POINT('',#416);
#119=VERTEX_POINT('',#420);
#120=VERTEX_POINT('',#422);
#121=VERTEX_POINT('',#426);
#122=VERTEX_POINT('',#428);
#123=CIRCLE('',#249,0.00475);
#124=CIRCLE('',#251,0.00475);
#125=CIRCLE('',#253,0.0004);
#126=CIRCLE('',#254,0.0004);
#127=CIRCLE('',#257,0.00065);
#128=CIRCLE('',#258,0.00065);
#129=CIRCLE('',#261,0.00065);
#130=CIRCLE('',#263,0.00065);
#131=CIRCLE('',#267,0.0004);
#132=CIRCLE('',#268,0.0004);
#133=CIRCLE('',#271,0.00065);
#134=CIRCLE('',#272,0.00065);
#135=CIRCLE('',#275,0.00065);
#136=CIRCLE('',#277,0.00065);
#137=EDGE_LOOP('',(#41,#42,#43,#44));
#138=EDGE_LOOP('',(#45,#46));
#139=EDGE_LOOP('',(#47,#48));
#140=EDGE_LOOP('',(#49));
#141=EDGE_LOOP('',(#50));
#142=EDGE_LOOP('',(#51));
#143=EDGE_LOOP('',(#52));
#144=EDGE_LOOP('',(#53));
#145=EDGE_LOOP('',(#54));
#146=EDGE_LOOP('',(#55));
#147=EDGE_LOOP('',(#56,#57));
#148=EDGE_LOOP('',(#58,#59,#60,#61));
#149=EDGE_LOOP('',(#62));
#150=EDGE_LOOP('',(#63,#64));
#151=EDGE_LOOP('',(#65,#66,#67,#68));
#152=EDGE_LOOP('',(#69));
#153=EDGE_LOOP('',(#70));
#154=EDGE_LOOP('',(#71));
#155=EDGE_LOOP('',(#72));
#156=EDGE_LOOP('',(#73));
#157=EDGE_LOOP('',(#74));
#158=EDGE_LOOP('',(#75));
#159=EDGE_LOOP('',(#76,#77));
#160=EDGE_LOOP('',(#78,#79,#80,#81));
#161=EDGE_LOOP('',(#82));
#162=EDGE_LOOP('',(#83,#84));
#163=FACE_BOUND('',#137,.T.);
#164=FACE_BOUND('',#138,.T.);
#165=FACE_BOUND('',#139,.T.);
#166=FACE_BOUND('',#140,.T.);
#167=FACE_BOUND('',#141,.T.);
#168=FACE_BOUND('',#142,.T.);
#169=FACE_BOUND('',#143,.T.);
#170=FACE_BOUND('',#144,.T.);
#171=FACE_BOUND('',#145,.T.);
#172=FACE_BOUND('',#146,.T.);
#173=FACE_BOUND('',#147,.T.);
#174=FACE_BOUND('',#148,.T.);
#175=FACE_BOUND('',#149,.T.);
#176=FACE_BOUND('',#150,.T.);
#177=FACE_BOUND('',#151,.T.);
#178=FACE_BOUND('',#152,.T.);
#179=FACE_BOUND('',#153,.T.);
#180=FACE_BOUND('',#154,.T.);
#181=FACE_BOUND('',#155,.T.);
#182=FACE_BOUND('',#156,.T.);
#183=FACE_BOUND('',#157,.T.);
#184=FACE_BOUND('',#158,.T.);
#185=FACE_BOUND('',#159,.T.);
#186=FACE_BOUND('',#160,.T.);
#187=FACE_BOUND('',#161,.T.);
#188=FACE_BOUND('',#162,.T.);
#189=PLANE('',#248);
#190=PLANE('',#255);
#191=PLANE('',#265);
#192=PLANE('',#269);
#193=ADVANCED_FACE('',(#163),#189,.T.);
#194=ADVANCED_FACE('',(#164,#165),#26,.T.);
#195=ADVANCED_FACE('',(#166,#167),#16,.T.);
#196=ADVANCED_FACE('',(#168),#190,.F.);
#197=ADVANCED_FACE('',(#169,#170),#17,.T.);
#198=ADVANCED_FACE('',(#171,#172),#12,.T.);
#199=ADVANCED_FACE('',(#173),#27,.T.);
#200=ADVANCED_FACE('',(#174,#175),#18,.T.);
#201=ADVANCED_FACE('',(#176),#13,.T.);
#202=ADVANCED_FACE('',(#177),#191,.T.);
#203=ADVANCED_FACE('',(#178,#179),#19,.T.);
#204=ADVANCED_FACE('',(#180),#192,.F.);
#205=ADVANCED_FACE('',(#181,#182),#20,.T.);
#206=ADVANCED_FACE('',(#183,#184),#14,.T.);
#207=ADVANCED_FACE('',(#185),#28,.T.);
#208=ADVANCED_FACE('',(#186,#187),#21,.T.);
#209=ADVANCED_FACE('',(#188),#15,.T.);
#210=CLOSED_SHELL('',(#193,#194,#195,#196,#197,#198,#199,#200,#201,#202,
#203,#204,#205,#206,#207,#208,#209));
#211=STYLED_ITEM('',(#212),#244);
#212=PRESENTATION_STYLE_ASSIGNMENT((#217));
#213=PRESENTATION_STYLE_ASSIGNMENT((#218));
#214=PRESENTATION_STYLE_ASSIGNMENT((#219));
#215=PRESENTATION_STYLE_ASSIGNMENT((#220));
#216=PRESENTATION_STYLE_ASSIGNMENT((#221));
#217=SURFACE_STYLE_USAGE(.BOTH.,#222);
#218=SURFACE_STYLE_USAGE(.BOTH.,#223);
#219=SURFACE_STYLE_USAGE(.BOTH.,#224);
#220=SURFACE_STYLE_USAGE(.BOTH.,#225);
#221=SURFACE_STYLE_USAGE(.BOTH.,#226);
#222=SURFACE_SIDE_STYLE('',(#227));
#223=SURFACE_SIDE_STYLE('',(#228));
#224=SURFACE_SIDE_STYLE('',(#229));
#225=SURFACE_SIDE_STYLE('',(#230));
#226=SURFACE_SIDE_STYLE('',(#231));
#227=SURFACE_STYLE_FILL_AREA(#232);
#228=SURFACE_STYLE_FILL_AREA(#233);
#229=SURFACE_STYLE_FILL_AREA(#234);
#230=SURFACE_STYLE_FILL_AREA(#235);
#231=SURFACE_STYLE_FILL_AREA(#236);
#232=FILL_AREA_STYLE('',(#237));
#233=FILL_AREA_STYLE('',(#238));
#234=FILL_AREA_STYLE('',(#239));
#235=FILL_AREA_STYLE('',(#240));
#236=FILL_AREA_STYLE('',(#241));
#237=FILL_AREA_STYLE_COLOUR('',#242);
#238=FILL_AREA_STYLE_COLOUR('',#243);
#239=FILL_AREA_STYLE_COLOUR('',#243);
#240=FILL_AREA_STYLE_COLOUR('',#243);
#241=FILL_AREA_STYLE_COLOUR('',#243);
#242=COLOUR_RGB('',0.266666666666666,0.266666666666666,0.266666666666666);
#243=COLOUR_RGB('',0.901960784313726,0.87843137254902,0.811764705882353);
#244=MANIFOLD_SOLID_BREP('Part 1',#210);
#245=SHAPE_DEFINITION_REPRESENTATION(#441,#246);
#246=SHAPE_REPRESENTATION('Part 1',(#247),#436);
#247=AXIS2_PLACEMENT_3D('',#347,#279,#280);
#248=AXIS2_PLACEMENT_3D('',#348,#281,#282);
#249=AXIS2_PLACEMENT_3D('',#349,#283,#284);
#250=AXIS2_PLACEMENT_3D('',#363,#287,#288);
#251=AXIS2_PLACEMENT_3D('',#375,#289,#290);
#252=AXIS2_PLACEMENT_3D('',#389,#291,#292);
#253=AXIS2_PLACEMENT_3D('',#390,#293,#294);
#254=AXIS2_PLACEMENT_3D('',#392,#295,#296);
#255=AXIS2_PLACEMENT_3D('',#394,#297,#298);
#256=AXIS2_PLACEMENT_3D('',#395,#299,#300);
#257=AXIS2_PLACEMENT_3D('',#396,#301,#302);
#258=AXIS2_PLACEMENT_3D('',#398,#303,#304);
#259=AXIS2_PLACEMENT_3D('',#400,#305,#306);
#260=AXIS2_PLACEMENT_3D('',#401,#307,#308);
#261=AXIS2_PLACEMENT_3D('',#402,#309,#310);
#262=AXIS2_PLACEMENT_3D('',#403,#311,#312);
#263=AXIS2_PLACEMENT_3D('',#404,#313,#314);
#264=AXIS2_PLACEMENT_3D('',#405,#315,#316);
#265=AXIS2_PLACEMENT_3D('',#406,#317,#318);
#266=AXIS2_PLACEMENT_3D('',#418,#321,#322);
#267=AXIS2_PLACEMENT_3D('',#419,#323,#324);
#268=AXIS2_PLACEMENT_3D('',#421,#325,#326);
#269=AXIS2_PLACEMENT_3D('',#423,#327,#328);
#270=AXIS2_PLACEMENT_3D('',#424,#329,#330);
#271=AXIS2_PLACEMENT_3D('',#425,#331,#332);
#272=AXIS2_PLACEMENT_3D('',#427,#333,#334);
#273=AXIS2_PLACEMENT_3D('',#429,#335,#336);
#274=AXIS2_PLACEMENT_3D('',#430,#337,#338);
#275=AXIS2_PLACEMENT_3D('',#431,#339,#340);
#276=AXIS2_PLACEMENT_3D('',#432,#341,#342);
#277=AXIS2_PLACEMENT_3D('',#433,#343,#344);
#278=AXIS2_PLACEMENT_3D('',#434,#345,#346);
#279=DIRECTION('',(0.,0.,1.));
#280=DIRECTION('',(1.,0.,0.));
#281=DIRECTION('',(-1.22464679914735E-16,1.,0.));
#282=DIRECTION('',(-1.,-1.22464679914735E-16,0.));
#283=DIRECTION('',(-1.22464679914735E-16,1.,0.));
#284=DIRECTION('',(0.,0.,-1.));
#285=DIRECTION('',(-0.642787609686539,-7.87187788734199E-17,-0.766044443118978));
#286=DIRECTION('',(-0.642787609686539,-7.87187788734199E-17,-0.766044443118978));
#287=DIRECTION('',(-1.22464679914735E-16,1.,0.));
#288=DIRECTION('',(0.,0.,-1.));
#289=DIRECTION('',(0.,-1.,0.));
#290=DIRECTION('',(0.,0.,-1.));
#291=DIRECTION('',(0.,0.,1.));
#292=DIRECTION('',(-1.,-1.22464679914735E-16,0.));
#293=DIRECTION('',(0.,0.,1.));
#294=DIRECTION('',(-1.,-1.22464679914735E-16,0.));
#295=DIRECTION('',(0.,0.,1.));
#296=DIRECTION('',(-1.,-1.22464679914735E-16,0.));
#297=DIRECTION('',(0.,0.,1.));
#298=DIRECTION('',(-1.,-1.22464679914735E-16,0.));
#299=DIRECTION('',(0.,0.,-1.));
#300=DIRECTION('',(1.,1.22464679914735E-16,0.));
#301=DIRECTION('',(0.,0.,1.));
#302=DIRECTION('',(-1.,-1.22464679914735E-16,0.));
#303=DIRECTION('',(0.,0.,1.));
#304=DIRECTION('',(-1.,-1.22464679914735E-16,0.));
#305=DIRECTION('',(0.,0.,1.));
#306=DIRECTION('',(-1.,-1.22464679914735E-16,0.));
#307=DIRECTION('',(1.22464679914735E-16,-1.,0.));
#308=DIRECTION('',(0.,0.,1.));
#309=DIRECTION('',(0.642787609686539,7.87187788734199E-17,0.766044443118978));
#310=DIRECTION('',(-0.766044443118978,-9.38133875270273E-17,0.642787609686539));
#311=DIRECTION('',(-0.642787609686539,-7.87187788734199E-17,-0.766044443118978));
#312=DIRECTION('',(0.766044443118978,9.38133875270273E-17,-0.64278760968654));
#313=DIRECTION('',(0.642787609686539,7.87187788734199E-17,0.766044443118978));
#314=DIRECTION('',(-0.766044443118978,-9.38133875270273E-17,0.642787609686539));
#315=DIRECTION('',(0.642787609686539,7.87187788734199E-17,0.766044443118978));
#316=DIRECTION('',(-0.766044443118978,-9.38133875270273E-17,0.642787609686539));
#317=DIRECTION('',(0.,-1.,0.));
#318=DIRECTION('',(1.,0.,0.));
#319=DIRECTION('',(0.642787609686539,0.,-0.766044443118978));
#320=DIRECTION('',(0.642787609686539,0.,-0.766044443118978));
#321=DIRECTION('',(0.,0.,1.));
#322=DIRECTION('',(1.,0.,0.));
#323=DIRECTION('',(0.,0.,1.));
#324=DIRECTION('',(1.,0.,0.));
#325=DIRECTION('',(0.,0.,1.));
#326=DIRECTION('',(1.,0.,0.));
#327=DIRECTION('',(0.,0.,1.));
#328=DIRECTION('',(1.,0.,0.));
#329=DIRECTION('',(0.,0.,-1.));
#330=DIRECTION('',(-1.,0.,0.));
#331=DIRECTION('',(0.,0.,1.));
#332=DIRECTION('',(1.,0.,0.));
#333=DIRECTION('',(0.,0.,1.));
#334=DIRECTION('',(1.,0.,0.));
#335=DIRECTION('',(0.,0.,1.));
#336=DIRECTION('',(1.,0.,0.));
#337=DIRECTION('',(0.,1.,0.));
#338=DIRECTION('',(0.,0.,1.));
#339=DIRECTION('',(-0.642787609686539,0.,0.766044443118978));
#340=DIRECTION('',(0.766044443118978,0.,0.642787609686539));
#341=DIRECTION('',(0.642787609686539,0.,-0.766044443118978));
#342=DIRECTION('',(-0.766044443118978,0.,-0.64278760968654));
#343=DIRECTION('',(-0.642787609686539,0.,0.766044443118978));
#344=DIRECTION('',(0.766044443118978,0.,0.642787609686539));
#345=DIRECTION('',(-0.642787609686539,0.,0.766044443118978));
#346=DIRECTION('',(0.766044443118978,0.,0.642787609686539));
#347=CARTESIAN_POINT('',(0.,0.,0.));
#348=CARTESIAN_POINT('',(-1.22464679914735E-19,0.001,0.00675));
#349=CARTESIAN_POINT('',(1.07156594925393E-19,0.001,0.00775));
#350=CARTESIAN_POINT('',(-0.0029982851811318,0.001,0.00406587378438177));
#351=CARTESIAN_POINT('',(-0.00196799023582824,0.001,0.00342686289464645));
#352=CARTESIAN_POINT('',(0.00264678626502291,0.001,0.00892653936855513));
#353=CARTESIAN_POINT('',(0.00232539246017963,0.001,0.00854351714699564));
#354=CARTESIAN_POINT('',(0.00232539246017963,0.001,0.00854351714699564));
#355=CARTESIAN_POINT('',(0.00241946875555415,0.001,0.00865563290998617));
#356=CARTESIAN_POINT('',(0.0024858190223132,0.001,0.008971512957623));
#357=CARTESIAN_POINT('',(0.00219958513066025,0.001,0.00932678072653948));
#358=CARTESIAN_POINT('',(0.00180119454365249,0.001,0.0095470648022829));
#359=CARTESIAN_POINT('',(0.0015003783487228,0.001,0.00942717220795853));
#360=CARTESIAN_POINT('',(0.00140613912843686,0.001,0.00931486227861949));
#361=CARTESIAN_POINT('',(0.00140613912843686,0.001,0.00931486227861949));
#362=CARTESIAN_POINT('',(0.00172753293328013,0.001,0.00969788450017898));
#363=CARTESIAN_POINT('',(2.29621274840129E-19,2.81204959249098E-35,0.00775));
#364=CARTESIAN_POINT('',(-0.0029982851811318,0.001,0.00406587378438177));
#365=CARTESIAN_POINT('',(-0.00309745870891728,0.000999999999999999,0.00394768337635317));
#366=CARTESIAN_POINT('',(-0.00332173385048335,0.000928283317265575,0.00373536360592552));
#367=CARTESIAN_POINT('',(-0.0035936881417176,0.000621135869702177,0.00347771723905475));
#368=CARTESIAN_POINT('',(-0.00352502293451168,0.00020138067280856,0.00320565251529251));
#369=CARTESIAN_POINT('',(-0.00313614435889177,4.20332779021476E-5,0.00292692206462878));
#370=CARTESIAN_POINT('',(-0.00273851340136743,0.000232724835177005,0.0027004164813446));
#371=CARTESIAN_POINT('',(-0.0024459716003027,0.000627589153098615,0.00274057831932065));
#372=CARTESIAN_POINT('',(-0.00223790416731851,0.000931497714288207,0.00305068901710559));
#373=CARTESIAN_POINT('',(-0.00206740023096967,0.00100000000000019,0.00330839067579692));
#374=CARTESIAN_POINT('',(-0.00196799023582825,0.00100000000000018,0.00342686289464648));
#375=CARTESIAN_POINT('',(-2.29621274840129E-19,-0.001,0.00775));
#376=CARTESIAN_POINT('',(0.0029982851811318,-0.001,0.00406587378438177));
#377=CARTESIAN_POINT('',(0.00196799023582824,-0.001,0.00342686289464645));
#378=CARTESIAN_POINT('',(0.0029982851811318,-0.001,0.00406587378438177));
#379=CARTESIAN_POINT('',(0.00309745870891728,-0.001,0.00394768337635317));
#380=CARTESIAN_POINT('',(0.00332173385048335,-0.000928283317265574,0.00373536360592552));
#381=CARTESIAN_POINT('',(0.0035936881417176,-0.000621135869702179,0.00347771723905475));
#382=CARTESIAN_POINT('',(0.00352502293451168,-0.000201380672808559,0.00320565251529251));
#383=CARTESIAN_POINT('',(0.00313614435889177,-4.20332779021488E-5,0.00292692206462878));
#384=CARTESIAN_POINT('',(0.00273851340136743,-0.000232724835177005,0.0027004164813446));
#385=CARTESIAN_POINT('',(0.0024459716003027,-0.000627589153098616,0.00274057831932065));
#386=CARTESIAN_POINT('',(0.00223790416731851,-0.000931497714288207,0.00305068901710559));
#387=CARTESIAN_POINT('',(0.00206740023096967,-0.00100000000000019,0.00330839067579692));
#388=CARTESIAN_POINT('',(0.00196799023582825,-0.00100000000000018,0.00342686289464648));
#389=CARTESIAN_POINT('',(-0.00375,0.00075,-0.003));
#390=CARTESIAN_POINT('',(-0.00375,0.00075,6.69872981077808E-5));
#391=CARTESIAN_POINT('',(-0.00415,0.00075,6.69872981077808E-5));
#392=CARTESIAN_POINT('',(-0.00375,0.00075,-0.003));
#393=CARTESIAN_POINT('',(-0.00415,0.00075,-0.003));
#394=CARTESIAN_POINT('',(-0.00375,0.00075,-0.003));
#395=CARTESIAN_POINT('',(-0.00375,0.00075,0.002));
#396=CARTESIAN_POINT('',(-0.00375,0.00075,0.0005));
#397=CARTESIAN_POINT('',(-0.0044,0.00075,0.0005));
#398=CARTESIAN_POINT('',(-0.00375,0.00075,0.002));
#399=CARTESIAN_POINT('',(-0.0031,0.00075,0.002));
#400=CARTESIAN_POINT('',(-0.00375,0.00075,0.0005));
#401=CARTESIAN_POINT('',(-0.0031,0.00075,0.002));
#402=CARTESIAN_POINT('',(-0.00359792888802734,0.00075,0.00241781194629625));
#403=CARTESIAN_POINT('',(0.00218715959915152,0.00075,0.00931221193436706));
#404=CARTESIAN_POINT('',(0.00186576579430825,0.00075,0.00892918971280756));
#405=CARTESIAN_POINT('',(0.00186576579430825,0.00075,0.00892918971280757));
#406=CARTESIAN_POINT('',(0.,-0.001,0.00675));
#407=CARTESIAN_POINT('',(-0.00264678626502291,-0.001,0.00892653936855513));
#408=CARTESIAN_POINT('',(-0.00232539246017963,-0.001,0.00854351714699564));
#409=CARTESIAN_POINT('',(-0.00232539246017963,-0.001,0.00854351714699564));
#410=CARTESIAN_POINT('',(-0.00241946875555415,-0.001,0.00865563290998617));
#411=CARTESIAN_POINT('',(-0.0024858190223132,-0.001,0.008971512957623));
#412=CARTESIAN_POINT('',(-0.00219958513066025,-0.001,0.00932678072653948));
#413=CARTESIAN_POINT('',(-0.00180119454365249,-0.001,0.0095470648022829));
#414=CARTESIAN_POINT('',(-0.0015003783487228,-0.001,0.00942717220795853));
#415=CARTESIAN_POINT('',(-0.00140613912843686,-0.001,0.00931486227861949));
#416=CARTESIAN_POINT('',(-0.00140613912843686,-0.001,0.00931486227861949));
#417=CARTESIAN_POINT('',(-0.00172753293328013,-0.001,0.00969788450017898));
#418=CARTESIAN_POINT('',(0.00375,-0.00075,-0.003));
#419=CARTESIAN_POINT('',(0.00375,-0.00075,6.69872981077808E-5));
#420=CARTESIAN_POINT('',(0.00415,-0.00075,6.69872981077808E-5));
#421=CARTESIAN_POINT('',(0.00375,-0.00075,-0.003));
#422=CARTESIAN_POINT('',(0.00415,-0.00075,-0.003));
#423=CARTESIAN_POINT('',(0.00375,-0.00075,-0.003));
#424=CARTESIAN_POINT('',(0.00375,-0.00075,0.002));
#425=CARTESIAN_POINT('',(0.00375,-0.00075,0.0005));
#426=CARTESIAN_POINT('',(0.0044,-0.00075,0.0005));
#427=CARTESIAN_POINT('',(0.00375,-0.00075,0.002));
#428=CARTESIAN_POINT('',(0.0031,-0.00075,0.002));
#429=CARTESIAN_POINT('',(0.00375,-0.00075,0.0005));
#430=CARTESIAN_POINT('',(0.0031,-0.00075,0.002));
#431=CARTESIAN_POINT('',(0.00359792888802734,-0.00075,0.00241781194629625));
#432=CARTESIAN_POINT('',(-0.00218715959915152,-0.00075,0.00931221193436706));
#433=CARTESIAN_POINT('',(-0.00186576579430825,-0.00075,0.00892918971280756));
#434=CARTESIAN_POINT('',(-0.00186576579430825,-0.00075,0.00892918971280757));
#435=MECHANICAL_DESIGN_GEOMETRIC_PRESENTATION_REPRESENTATION('',(#211,#22,
#23,#24,#25),#436);
#436=(
GEOMETRIC_REPRESENTATION_CONTEXT(3)
GLOBAL_UNCERTAINTY_ASSIGNED_CONTEXT((#437))
GLOBAL_UNIT_ASSIGNED_CONTEXT((#440,#439,#438))
REPRESENTATION_CONTEXT('Part 1','TOP_LEVEL_ASSEMBLY_PART')
);
#437=UNCERTAINTY_MEASURE_WITH_UNIT(LENGTH_MEASURE(2.E-5),#440,
'DISTANCE_ACCURACY_VALUE','Maximum Tolerance applied to model');
#438=(
NAMED_UNIT(*)
SI_UNIT($,.STERADIAN.)
SOLID_ANGLE_UNIT()
);
#439=(
NAMED_UNIT(*)
PLANE_ANGLE_UNIT()
SI_UNIT($,.RADIAN.)
);
#440=(
LENGTH_UNIT()
NAMED_UNIT(*)
SI_UNIT($,.METRE.)
);
#441=PRODUCT_DEFINITION_SHAPE('','',#442);
#442=PRODUCT_DEFINITION('','',#444,#443);
#443=PRODUCT_DEFINITION_CONTEXT('',#450,'design');
#444=PRODUCT_DEFINITION_FORMATION_WITH_SPECIFIED_SOURCE('','',#446,
 .NOT_KNOWN.);
#445=PRODUCT_RELATED_PRODUCT_CATEGORY('','',(#446));
#446=PRODUCT('Part 1','Part 1','Part 1',(#448));
#447=PRODUCT_CATEGORY('','');
#448=PRODUCT_CONTEXT('',#450,'mechanical');
#449=APPLICATION_PROTOCOL_DEFINITION('international standard',
'ap242_managed_model_based_3d_engineering',2011,#450);
#450=APPLICATION_CONTEXT('managed model based 3d engineering');
ENDSEC;
END-ISO-10303-21;
